<svg xmlns="http://www.w3.org/2000/svg" width="32" height="32" viewBox="0 0 16 16" fill="none">
  <title>GPUI Omarchy</title>
  <!-- Integer 16px geometry keeps the hollow, interlocking G sharp at favicon sizes. -->
  <defs>
    <mask id="g-opening" maskUnits="userSpaceOnUse" x="0" y="0" width="16" height="16">
      <path fill="white" d="M0 0h16v16H0z"/>
      <path fill="black" d="M12 4h4v3h-4z"/>
    </mask>
  </defs>
  <g fill="#9ece6a">
    <path mask="url(#g-opening)" fill-rule="evenodd" d="M16 16H9v-1h6V1H8v2H3v10h10V3h-2V2h3v12H8v2H0V0h16zM1 15H7v-1H2V9H1zM1 8H2V2H7V1H1z"/>
    <path fill-rule="evenodd" d="M8 7h8v3H8zM9 8v1h6V8z"/>
  </g>
</svg>
